<svg width="18" height="18" viewBox="0 0 18 18" fill="none" xmlns="http://www.w3.org/2000/svg">
<rect width="18" height="18" rx="2" fill="white"/>
<path d="M6.75586 9.6416H8.21582C8.18652 10.1201 8.05469 10.5449 7.82031 10.916C7.58919 11.2871 7.2653 11.5768 6.84863 11.7852C6.43522 11.9935 5.93717 12.0977 5.35449 12.0977C4.89876 12.0977 4.49023 12.0195 4.12891 11.8633C3.76758 11.7038 3.45833 11.4759 3.20117 11.1797C2.94727 10.8835 2.75358 10.5254 2.62012 10.1055C2.48665 9.68555 2.41992 9.21517 2.41992 8.69434V8.20117C2.41992 7.68034 2.48828 7.20996 2.625 6.79004C2.76497 6.36686 2.96354 6.00716 3.2207 5.71094C3.48112 5.41471 3.79199 5.18685 4.15332 5.02734C4.51465 4.86784 4.91829 4.78809 5.36426 4.78809C5.95671 4.78809 6.45638 4.89551 6.86328 5.11035C7.27344 5.3252 7.59082 5.62142 7.81543 5.99902C8.04329 6.37663 8.18001 6.80632 8.22559 7.28809H6.76074C6.74447 7.00163 6.6875 6.75911 6.58984 6.56055C6.49219 6.35872 6.34408 6.20736 6.14551 6.10645C5.9502 6.00228 5.68978 5.9502 5.36426 5.9502C5.12012 5.9502 4.9069 5.99577 4.72461 6.08691C4.54232 6.17806 4.38932 6.31641 4.26562 6.50195C4.14193 6.6875 4.04915 6.92188 3.9873 7.20508C3.92871 7.48503 3.89941 7.8138 3.89941 8.19141V8.69434C3.89941 9.06217 3.92708 9.38607 3.98242 9.66602C4.03776 9.94271 4.1224 10.1771 4.23633 10.3691C4.35352 10.5579 4.50326 10.7012 4.68555 10.7988C4.87109 10.8932 5.09408 10.9404 5.35449 10.9404C5.66048 10.9404 5.91276 10.8916 6.11133 10.7939C6.3099 10.6963 6.46126 10.5514 6.56543 10.3594C6.67285 10.1673 6.73633 9.92806 6.75586 9.6416ZM11.7412 10.5156L13.416 4.89062H15.0469L12.5713 12H11.4971L11.7412 10.5156ZM10.1982 4.89062L11.8682 10.5156L12.1221 12H11.0381L8.57715 4.89062H10.1982Z" fill="black"/>
</svg>
