<svg width="293" height="166" viewBox="0 0 293 166" fill="none" xmlns="http://www.w3.org/2000/svg">
<rect width="293" height="166" rx="12" fill="#3B3B3B"/>
<path d="M128.501 96V69.8182H144.302V72.6307H131.672V81.4773H143.484V84.2898H131.672V93.1875H144.507V96H128.501ZM158.352 76.3636V78.9205H147.767V76.3636H158.352ZM150.937 96V73.6534C150.937 72.5284 151.202 71.5909 151.73 70.8409C152.258 70.0909 152.944 69.5284 153.788 69.1534C154.632 68.7784 155.523 68.5909 156.46 68.5909C157.202 68.5909 157.807 68.6506 158.275 68.7699C158.744 68.8892 159.094 69 159.324 69.1023L158.454 71.7102C158.301 71.6591 158.088 71.5952 157.815 71.5185C157.551 71.4418 157.202 71.4034 156.767 71.4034C155.77 71.4034 155.05 71.6548 154.606 72.1577C154.172 72.6605 153.954 73.3977 153.954 74.3693V96H150.937ZM171.325 76.3636V78.9205H160.74V76.3636H171.325ZM163.91 96V73.6534C163.91 72.5284 164.174 71.5909 164.703 70.8409C165.231 70.0909 165.917 69.5284 166.761 69.1534C167.605 68.7784 168.495 68.5909 169.433 68.5909C170.174 68.5909 170.779 68.6506 171.248 68.7699C171.717 68.8892 172.066 69 172.296 69.1023L171.427 71.7102C171.274 71.6591 171.061 71.5952 170.788 71.5185C170.524 71.4418 170.174 71.4034 169.74 71.4034C168.742 71.4034 168.022 71.6548 167.579 72.1577C167.144 72.6605 166.927 73.3977 166.927 74.3693V96H163.91ZM182.722 96.4091C180.949 96.4091 179.394 95.9872 178.056 95.1435C176.726 94.2997 175.686 93.1193 174.936 91.6023C174.195 90.0852 173.824 88.3125 173.824 86.2841C173.824 84.2386 174.195 82.4531 174.936 80.9276C175.686 79.402 176.726 78.2173 178.056 77.3736C179.394 76.5298 180.949 76.108 182.722 76.108C184.495 76.108 186.046 76.5298 187.375 77.3736C188.713 78.2173 189.753 79.402 190.495 80.9276C191.245 82.4531 191.62 84.2386 191.62 86.2841C191.62 88.3125 191.245 90.0852 190.495 91.6023C189.753 93.1193 188.713 94.2997 187.375 95.1435C186.046 95.9872 184.495 96.4091 182.722 96.4091ZM182.722 93.6989C184.068 93.6989 185.176 93.3537 186.046 92.6634C186.915 91.973 187.558 91.0653 187.976 89.9403C188.394 88.8153 188.602 87.5966 188.602 86.2841C188.602 84.9716 188.394 83.7486 187.976 82.6151C187.558 81.4815 186.915 80.5653 186.046 79.8665C185.176 79.1676 184.068 78.8182 182.722 78.8182C181.375 78.8182 180.267 79.1676 179.398 79.8665C178.529 80.5653 177.885 81.4815 177.468 82.6151C177.05 83.7486 176.841 84.9716 176.841 86.2841C176.841 87.5966 177.05 88.8153 177.468 89.9403C177.885 91.0653 178.529 91.973 179.398 92.6634C180.267 93.3537 181.375 93.6989 182.722 93.6989ZM196.225 96V76.3636H199.14V79.3295H199.344C199.702 78.358 200.35 77.5696 201.287 76.9645C202.225 76.3594 203.282 76.0568 204.458 76.0568C204.68 76.0568 204.957 76.0611 205.289 76.0696C205.621 76.0781 205.873 76.0909 206.043 76.108V79.1761C205.941 79.1506 205.707 79.1122 205.34 79.0611C204.982 79.0014 204.603 78.9716 204.202 78.9716C203.248 78.9716 202.395 79.1719 201.645 79.5724C200.904 79.9645 200.316 80.5099 199.881 81.2088C199.455 81.8991 199.242 82.6875 199.242 83.5739V96H196.225ZM219.39 76.3636V78.9205H209.214V76.3636H219.39ZM212.18 71.6591H215.197V90.375C215.197 91.2273 215.32 91.8665 215.567 92.2926C215.823 92.7102 216.147 92.9915 216.539 93.1364C216.939 93.2727 217.361 93.3409 217.805 93.3409C218.137 93.3409 218.41 93.3239 218.623 93.2898C218.836 93.2472 219.006 93.2131 219.134 93.1875L219.748 95.8977C219.543 95.9744 219.258 96.0511 218.891 96.1278C218.525 96.2131 218.06 96.2557 217.498 96.2557C216.645 96.2557 215.81 96.0724 214.992 95.706C214.182 95.3395 213.509 94.7812 212.972 94.0312C212.444 93.2812 212.18 92.3352 212.18 91.1932V71.6591Z" fill="white"/>
<ellipse cx="94.5" cy="82.1238" rx="22.5" ry="21" fill="#59C504"/>
</svg>
