<svg width="24" height="24" viewBox="0 0 24 24" fill="none" xmlns="http://www.w3.org/2000/svg">
<path d="M6.76534 8.69232C6.73834 10.1064 7.16283 10.7326 7.17333 11.1303C7.16835 11.2112 7.15179 11.289 7.12504 11.3571C7.09829 11.4252 7.06213 11.4817 7.01959 11.5217L6.53959 12.0811C6.47748 12.1536 6.40425 12.1952 6.32847 12.201C6.31235 12.1997 6.02135 12.3152 5.56048 10.6021C5.27932 11.1865 4.92157 11.656 4.51462 11.9747C4.10767 12.2934 3.66231 12.4528 3.21265 12.4407C2.60216 12.4963 0.947685 11.8639 1.03281 8.93143C0.973185 6.54154 2.31004 5.05691 3.69264 5.1824C3.95889 5.18365 4.50263 5.2055 5.45474 5.57385V4.59866C5.55561 2.94672 4.9035 1.66499 3.77439 1.85728C3.68439 1.8579 3.0469 1.82606 2.05542 2.48847C1.77942 2.69949 1.74417 2.66452 1.6523 2.66452C1.37443 2.66452 1.4888 1.32349 1.54205 1.15367C1.73742 0.754109 2.88678 0.00804857 4.01476 0.018662C4.76896 -0.0923668 5.51912 0.295159 6.1031 1.09748C6.34046 1.53958 6.52154 2.05717 6.63543 2.61901C6.74931 3.18084 6.79363 3.77527 6.76571 4.36642L6.76534 8.69232ZM3.52464 10.7145C4.74075 10.6851 5.25561 9.46772 5.37299 8.81219C5.46524 8.18475 5.44986 7.78768 5.44986 7.10156C5.08724 6.95671 4.56525 6.79876 3.96639 6.79751C3.39827 6.72634 2.36066 7.149 2.40116 8.81156C2.35466 9.8598 2.81815 10.7719 3.52464 10.7145ZM9.93404 12.1535C9.63929 12.1985 9.50204 11.8501 9.45855 11.5061L7.59108 1.22672C7.5547 1.05316 7.5307 0.873978 7.51908 0.691053C7.51219 0.615637 7.52357 0.538753 7.55071 0.477294C7.57785 0.415835 7.61853 0.374829 7.66382 0.363286C7.67282 0.360788 7.58395 0.363286 8.49819 0.363286C8.82743 0.308346 8.93468 0.73975 8.9688 1.0107L10.3083 9.80298L11.5518 1.0107C11.5716 0.809674 11.662 0.319584 12.0318 0.371402H12.6752C12.7566 0.360164 13.0919 0.340186 13.1507 1.01882L14.404 9.92348L15.7866 1.01882C15.8046 0.882719 15.8886 0.30897 16.2621 0.371402H17.0015C17.0334 0.363286 17.2322 0.320832 17.1984 0.907067C17.1823 1.02257 17.3263 0.241544 15.2203 11.5142C15.1772 11.8582 15.0396 12.2066 14.7448 12.1617H14.044C13.6337 12.2335 13.5749 11.5586 13.5685 11.4905L12.325 2.92923L11.0958 11.4818C11.0898 11.5498 11.0309 12.2247 10.6203 12.1529H9.93404V12.1535ZM20.1894 12.505C19.9689 12.5057 18.9174 12.4863 18.0384 11.7377C17.9508 11.676 17.8763 11.5724 17.8241 11.44C17.772 11.3077 17.7446 11.1525 17.7455 10.9942V10.323C17.7455 9.79549 17.978 9.89226 18.0767 9.95532C18.4531 10.2088 18.6946 10.4011 19.157 10.5547C20.5314 11.0248 21.1359 10.4111 21.284 10.275C21.7771 9.78737 21.8161 8.67172 21.4808 8.09297C21.0879 7.5442 20.9004 7.5236 19.4885 6.78191C19.3145 6.70137 17.8498 5.93221 17.8464 3.51297C17.8235 1.7499 18.7858 0.00555108 20.4534 0.0199104C20.9285 0.0192861 22.1945 0.277754 22.5372 0.995096C22.5878 1.12558 22.613 1.27916 22.6092 1.43462V2.0658C22.6092 2.343 22.5485 2.4816 22.4266 2.4816C22.1375 2.42791 21.6245 1.78423 20.5831 1.81046C20.3247 1.78798 19.0873 1.86727 19.1428 3.36938C19.1266 4.55309 20.1406 4.99698 20.2565 5.04817C21.6237 5.73305 22.0808 5.84668 22.6235 6.89491C23.2662 8.28402 22.9197 9.91037 22.7866 10.3561C22.0711 12.6967 20.2209 12.5063 20.1894 12.505ZM21.6968 19.0516C19.0708 22.2806 15.2586 23.9994 12.0036 23.9994C7.61172 24.0476 3.36783 21.3589 0.106199 16.462C-0.138672 16.0942 0.0773246 15.5904 0.37507 15.8707C3.99318 19.3164 8.08964 21.1269 12.2579 21.1225C15.3706 21.0947 18.4494 20.0435 21.3173 18.029C21.7591 17.7168 22.1337 18.516 21.6968 19.0516ZM22.7915 16.9733C22.4555 16.2541 20.5685 16.6374 19.7236 16.8053C19.469 16.8534 19.4259 16.4857 19.6565 16.2141C21.1591 14.4554 23.6269 14.9592 23.9104 15.5505C24.1936 16.1417 23.8336 20.2584 22.427 22.225C22.211 22.5291 22.0043 22.3686 22.1003 21.9691C22.4168 20.6424 23.1274 17.6931 22.7915 16.9733Z" fill="#2B2B2B"/>
</svg>
