<svg width="24" height="24" viewBox="0 0 24 24" fill="none" xmlns="http://www.w3.org/2000/svg">
<path d="M23.903 6.07276L23.9697 6.03395C23.8363 5.82053 23.6362 5.62652 23.4361 5.52951L12.6964 0.135812C12.5185 0.0388036 12.2739 0 12.0071 0C11.7403 0 11.4957 0.0582053 11.3178 0.135812L0.644826 5.54891C0.266825 5.74293 0 6.22797 0 6.5966V17.4034C0 17.6168 0.0444707 17.8496 0.200118 18.0631L0.155648 18.0825C0.266825 18.2377 0.422472 18.3735 0.57812 18.4511L11.2956 23.8642C11.4735 23.9612 11.718 24 11.9849 24C12.2517 24 12.4963 23.9418 12.6742 23.8642L23.3472 18.4511C23.7252 18.2571 23.992 17.772 23.992 17.4034V6.5772C24.0142 6.42199 23.992 6.24737 23.903 6.07276ZM12.0071 19.654C7.15979 19.654 3.22413 16.2199 3.22413 11.9903C3.22413 7.76071 7.15979 4.3266 12.0071 4.3266C15.2757 4.3266 18.1218 5.89814 19.6338 8.20695L16.7432 9.66209C15.8094 8.20695 14.0305 7.23686 12.0071 7.23686C9.00533 7.23686 6.55944 9.37106 6.55944 11.9903C6.55944 14.6095 9.00533 16.7437 12.0071 16.7437C14.0305 16.7437 15.8094 15.7736 16.7432 14.3379L19.6116 15.8124C18.0996 18.1019 15.2535 19.654 12.0071 19.654ZM23.3472 11.6023H22.6356L22.4355 12.3783H23.3472V13.3484H22.2354L21.9686 14.5125H20.879L21.1459 13.3484H20.3009L20.0341 14.5125H18.9668L19.2336 13.3484H18.6777V12.3783H19.456L19.6561 11.6023H18.6777V10.6322H19.8562L20.123 9.46807H21.2126L20.9457 10.6322H21.7907L22.0575 9.46807H23.1248L22.858 10.6322H23.3472V11.6023ZM20.5233 12.3783H21.3682L21.5683 11.6023H20.7234L20.5233 12.3783Z" fill="#2B2B2B"/>
</svg>
