<svg width="24" height="24" viewBox="0 0 24 24" fill="none" xmlns="http://www.w3.org/2000/svg">
<path d="M23.772 9.07113C23.7 9.00418 23.1 8.35146 21.804 8.35146C21.468 8.35146 21.132 8.40167 20.796 8.48535C20.544 6.14226 19.14 4.95398 19.08 4.90377L18.732 4.61925L18.516 5.07113C18.228 5.67364 18 6.35983 17.904 7.06276C17.664 8.40167 17.808 9.67364 18.3 10.7615C17.712 11.2301 16.752 11.3473 16.548 11.3473H0.744C0.336 11.3473 0 11.8159 0 12.4017C0 14.3264 0.216 16.251 0.696 18.0586C1.236 20.0502 2.052 21.523 3.096 22.4268C4.272 23.431 6.204 24 8.4 24C9.348 24 10.332 23.8828 11.304 23.6318C12.648 23.2971 13.944 22.6444 15.132 21.6904C16.1159 20.9057 16.9965 19.8925 17.736 18.6946C18.996 16.7364 19.74 14.5105 20.28 12.5858H20.508C21.876 12.5858 22.728 11.8159 23.196 11.1632C23.508 10.7615 23.736 10.2762 23.904 9.70711L24 9.30544L23.772 9.07113ZM2.22 10.728H4.332C4.428 10.728 4.524 10.6109 4.524 10.4603V7.8159C4.524 7.68201 4.44 7.54812 4.332 7.54812H2.22C2.112 7.54812 2.028 7.66527 2.028 7.8159V10.4603C2.04 10.6109 2.112 10.728 2.22 10.728ZM5.136 10.728H7.248C7.344 10.728 7.44 10.6109 7.44 10.4603V7.8159C7.44 7.68201 7.356 7.54812 7.248 7.54812H5.136C5.028 7.54812 4.944 7.66527 4.944 7.8159V10.4603C4.956 10.6109 5.028 10.728 5.136 10.728ZM8.1 10.728H10.2C10.32 10.728 10.404 10.6109 10.404 10.4603V7.8159C10.404 7.68201 10.332 7.54812 10.2 7.54812H8.1C8.004 7.54812 7.92 7.66527 7.92 7.8159V10.4603C7.92 10.6109 7.992 10.728 8.1 10.728ZM11.028 10.728H13.152C13.248 10.728 13.332 10.6109 13.332 10.4603V7.8159C13.332 7.68201 13.26 7.54812 13.152 7.54812H11.028C10.932 7.54812 10.848 7.66527 10.848 7.8159V10.4603C10.848 10.6109 10.932 10.728 11.028 10.728ZM5.136 6.97908H7.248C7.344 6.97908 7.44 6.82845 7.44 6.67782V4.05021C7.44 3.89958 7.356 3.78243 7.248 3.78243H5.136C5.028 3.78243 4.944 3.88285 4.944 4.05021V6.67782C4.956 6.82845 5.028 6.97908 5.136 6.97908ZM8.1 6.97908H10.2C10.32 6.97908 10.404 6.82845 10.404 6.67782V4.05021C10.404 3.89958 10.332 3.78243 10.2 3.78243H8.1C8.004 3.78243 7.92 3.88285 7.92 4.05021V6.67782C7.92 6.82845 7.992 6.97908 8.1 6.97908ZM11.028 6.97908H13.152C13.248 6.97908 13.332 6.82845 13.332 6.67782V4.05021C13.332 3.89958 13.248 3.78243 13.152 3.78243H11.028C10.932 3.78243 10.848 3.88285 10.848 4.05021V6.67782C10.848 6.82845 10.932 6.97908 11.028 6.97908ZM11.028 3.16318H13.152C13.248 3.16318 13.332 3.04603 13.332 2.8954V0.284519C13.332 0.117155 13.248 0 13.152 0H11.028C10.932 0 10.848 0.100419 10.848 0.284519V2.8954C10.848 3.02929 10.932 3.16318 11.028 3.16318ZM13.98 10.728H16.092C16.2 10.728 16.284 10.6109 16.284 10.4603V7.8159C16.284 7.68201 16.2 7.54812 16.092 7.54812H13.98C13.884 7.54812 13.8 7.66527 13.8 7.8159V10.4603C13.8 10.6109 13.884 10.728 13.98 10.728Z" fill="#2B2B2B"/>
</svg>
