<svg width="24" height="24" viewBox="0 0 24 24" fill="none" xmlns="http://www.w3.org/2000/svg">
<path d="M18.1475 4.96226L18.2317 4.99715C17.0919 5.4333 13.8347 6.83987 13.8347 8.63025C13.8347 9.23431 14.3114 9.81657 14.758 10.3639C15.152 10.8459 15.5235 11.2995 15.5235 11.7138C15.5235 12.7573 14.1204 13.5674 13.3279 13.9403L13.1776 13.8771C13.4768 13.6121 13.8452 13.1684 13.8452 12.6951C13.8452 12.0431 13.3836 11.5219 12.9159 10.9931C12.4317 10.4468 11.9415 9.8918 11.9415 9.17216C11.9415 6.67304 16.6257 5.33189 18.1475 4.96226ZM11.9896 6.28378C13.8738 5.06257 15.9325 3.72796 15.9325 1.7206C15.9325 0.812323 15.4197 0.232248 15.1656 0L15.0828 0.0338014C15.143 0.214802 15.2332 0.548454 15.2332 0.984601C15.2332 2.81205 13.0949 4.09214 11.0257 5.33298C9.0843 6.49749 7.20309 7.62493 7.20309 9.134C7.20309 11.2984 10.1475 12.6297 11.3911 13.1923L11.4858 13.236L11.561 13.2032C11.4938 13.1495 11.4227 13.0942 11.3475 13.0375C10.3911 12.2993 8.93844 11.1795 8.93844 9.46656C8.93844 8.26388 10.4016 7.31418 11.9896 6.28378ZM11.3114 17.0871C13.964 17.0871 15.8197 16.8113 16.6438 16.6423L17.8949 17.1656C16.7024 17.6051 14.0588 17.9398 11.3054 17.9398C8.06775 17.9398 4.52788 17.436 4.51735 16.7644C4.50983 16.3937 5.66773 16.1472 6.91586 15.988L6.99105 16.0197C6.99105 16.0197 6.56849 16.1298 6.57301 16.3828C6.57902 16.7644 8.70836 17.0871 11.3099 17.0871M6.00308 19.4543C6.00308 19.0105 7.26474 18.8001 7.84219 18.7161L7.91738 18.7488C7.81813 18.8023 7.76399 18.8753 7.76399 18.9375C7.76399 19.2286 9.1625 19.4947 11.3069 19.4947C13.2287 19.4947 14.2964 19.3235 14.931 19.2133L16.4197 19.8381C16.352 19.873 14.8859 20.5414 11.3039 20.5414C8.70084 20.5414 6.00308 20.0704 6.00308 19.4543ZM18.8287 17.5702C20.6032 16.8363 22.3791 15.9684 22.4799 14.5749C22.5461 13.6601 21.3867 12.9895 20.119 13.1684L20.1866 13.0462V13.0441C20.5054 12.9743 20.8994 12.9176 21.34 12.9176C22.7581 12.9176 23.8453 13.5336 23.9837 14.3961C24.2634 16.1254 20.8829 17.2507 18.9896 17.6378L18.8287 17.5702ZM21.7987 20.8282C21.8137 22.0167 16.2377 22.7232 11.2542 22.7549C6.95196 22.7821 0.0150579 22.1933 2.01945e-05 21.0048C-0.00900243 20.1838 3.00756 19.6157 4.64667 19.4521L4.81961 19.523C4.81961 19.523 2.37598 19.9341 2.3835 20.681C2.39252 21.4257 7.53391 22.0701 11.2467 22.0472C16.9987 22.0101 20.8919 21.3308 21.3521 20.4095L21.4333 20.3757C21.6017 20.4651 21.7942 20.6123 21.7987 20.8282ZM4.30081 23.2488C6.42855 23.4953 8.58076 23.6138 10.7354 23.6032C20.0709 23.5443 22.7055 21.8804 23.1115 21.5184L23.1822 21.5489C23.0859 22.8661 18.149 23.9608 12.0603 23.999C8.96099 24.0186 6.13992 23.7591 4.11283 23.3284L4.30081 23.2488ZM8.21362 13.1269C6.59105 13.2174 3.10681 13.5914 3.10681 14.2565C3.10681 14.7603 6.30082 15.4701 11.3054 15.4701C15.8077 15.4701 18.6498 14.8541 19.313 14.6196L18.346 14.2107C17.6543 14.347 15.0844 14.7625 11.3054 14.7625C9.07979 14.7625 5.24518 14.4648 5.24518 14.0101C5.24518 13.6023 7.63768 13.2883 8.3249 13.1978L8.36851 13.1923L8.21362 13.1269Z" fill="#2B2B2B"/>
</svg>
