<svg width="24" height="24" viewBox="0 0 24 24" fill="none" xmlns="http://www.w3.org/2000/svg">
<path d="M12 23.9998C11.6269 23.9998 11.28 23.9106 10.956 23.7563L7.65164 22.0152C7.15527 21.7727 7.404 21.6845 7.55345 21.6405C8.22327 21.4421 8.34764 21.398 9.04364 21.0444C9.11782 21.0003 9.21818 21.0223 9.29236 21.0664L11.8265 22.4119C11.9247 22.456 12.0502 22.456 12.1244 22.4119L22.0375 17.3186C22.1356 17.2745 22.1858 17.1863 22.1858 17.0761V6.9116C22.1858 6.8014 22.1367 6.71324 22.0375 6.66916L12.1244 1.59891C12.0251 1.55483 11.9007 1.55483 11.8265 1.59891L1.91345 6.66916C1.81418 6.71324 1.764 6.82344 1.764 6.9116V17.0761C1.764 17.1643 1.81418 17.2745 1.91345 17.3186L4.62109 18.7081C6.08727 19.3693 7.00582 18.5979 7.00582 17.8265V7.79421C7.00582 7.66197 7.13018 7.52973 7.30473 7.52973H8.57127C8.72073 7.52973 8.86909 7.63993 8.86909 7.79421V17.8255C8.86909 19.5677 7.80109 20.5815 5.93782 20.5815C5.36618 20.5815 4.91891 20.5815 3.65236 20.0305L1.044 18.7081C0.729917 18.5492 0.467631 18.3162 0.284135 18.0332C0.10064 17.7503 0.00256407 17.4275 0 17.0982V6.93364C0 6.27244 0.397091 5.65531 1.044 5.32471L10.9571 0.230415C11.28 0.0788195 11.6374 -0.000228882 12 -0.000228882C12.3626 -0.000228882 12.72 0.0788195 13.0429 0.230415L22.9571 5.32371C23.6029 5.65431 24 6.27143 24 6.93264V17.0972C24 17.7584 23.6029 18.3755 22.9571 18.7071L13.044 23.7994C12.7145 23.9306 12.3591 23.9981 12 23.9978M15.0556 17.008C10.7084 17.008 9.81382 15.2448 9.81382 13.7451C9.81382 13.6128 9.93818 13.4806 10.1116 13.4806H11.4033C11.5527 13.4806 11.676 13.5687 11.676 13.701C11.8756 14.8691 12.4473 15.4422 15.0807 15.4422C17.1676 15.4422 18.0622 15.0234 18.0622 14.0316C18.0622 13.4585 17.8135 13.0398 14.5593 12.7533C11.8505 12.5098 10.1618 11.9818 10.1618 10.0634C10.1618 8.27709 11.8505 7.21816 14.6836 7.21816C17.8636 7.21816 19.4291 8.18893 19.6276 10.3058C19.6252 10.3774 19.5989 10.4467 19.5524 10.5042C19.5033 10.5482 19.4291 10.5923 19.3538 10.5923H18.0622C17.9994 10.5909 17.9389 10.5708 17.8897 10.535C17.8405 10.4992 17.8053 10.4497 17.7895 10.394C17.4905 9.18174 16.7204 8.78402 14.6836 8.78402C12.3971 8.78402 12.1244 9.4893 12.1244 10.0193C12.1244 10.6584 12.4473 10.8568 15.528 11.2094C18.5836 11.5621 20.0247 12.069 20.0247 13.9645C19.9996 15.906 18.2116 17.008 15.0556 17.008Z" fill="#2B2B2B"/>
</svg>
