<svg width="24" height="24" viewBox="0 0 24 24" fill="none" xmlns="http://www.w3.org/2000/svg">
<path fill-rule="evenodd" clip-rule="evenodd" d="M23.9838 14.5304C23.8926 13.9557 23.3955 13.5794 22.8173 13.554C22.608 13.5447 22.3954 13.566 22.1868 13.5918C21.9347 13.6229 21.6856 13.678 21.4341 13.7145C21.2603 13.7397 21.0841 13.7513 20.9105 13.7686L20.9062 13.7468C21.2303 13.1524 21.568 12.5646 21.8746 11.9618C22.1097 11.4994 22.3109 11.0203 22.5188 10.5451C22.8627 9.75773 23.1375 8.94598 23.3651 8.12104C23.5831 7.33115 23.7697 6.53259 23.8283 5.71316C23.8518 5.38587 23.868 5.05719 23.8662 4.72949C23.8646 4.46817 23.8356 4.20645 23.8086 3.94591C23.7782 3.64736 23.6853 3.36437 23.5567 3.09201C23.3872 2.73321 23.1243 2.43879 22.8477 2.15915C22.6262 1.93524 22.3827 1.73122 22.1411 1.5274C21.7968 1.23653 21.4096 1.00435 21.0074 0.798161C20.5518 0.563124 20.0692 0.381336 19.5695 0.256601C19.2667 0.18157 18.957 0.125839 18.6504 0.0663657C18.54 0.0447033 18.4295 0 18.3192 0H16.2422C16.1672 0 16.0927 0.0376138 16.0171 0.0458849C15.5198 0.0996471 15.0284 0.190629 14.5512 0.334192C14.3727 0.387954 14.2096 0.354082 14.0401 0.338918C13.9101 0.327299 13.7823 0.293427 13.6523 0.287125C13.1571 0.2631 12.6612 0.227849 12.1661 0.232969C11.6918 0.237696 11.2223 0.313514 10.7631 0.440141C10.3788 0.54609 10.0028 0.675473 9.6584 0.871617C9.51096 0.955509 9.39414 0.939755 9.24162 0.897021C8.72913 0.753458 8.21297 0.61856 7.69236 0.505325C7.36787 0.434824 7.03425 0.39977 6.70285 0.366095C6.38486 0.333956 6.06564 0.31464 5.746 0.308197C5.43408 0.301698 5.11993 0.301895 4.80943 0.328678C4.31487 0.370504 3.82739 0.470557 3.35771 0.626634C2.83754 0.799046 2.35152 1.05646 1.92061 1.38777C1.48112 1.72551 1.12863 2.13788 0.845107 2.60874C0.546369 3.1056 0.341531 3.63751 0.214167 4.19621C0.145212 4.49889 0.101608 4.81004 0.054353 5.11745C0.0395479 5.21316 0.20281 5.30887 0 5.40418V6.74213C0.20281 6.83114 0.0421843 6.91996 0.0539473 7.00917C0.0821378 7.22362 0.107083 7.43986 0.1444 7.65274C0.203418 7.98969 0.273387 8.32565 0.344776 8.66043C0.443905 9.12835 0.548426 9.59517 0.65832 10.0608C0.738632 10.3995 0.830099 10.7363 0.925825 11.0713C1.07205 11.5829 1.21605 12.0955 1.38134 12.6014C1.53486 13.0715 1.7107 13.5349 1.88511 13.9982C2.12666 14.6393 2.41587 15.2596 2.76267 15.8541C3.06263 16.3689 3.40537 16.851 3.86514 17.2476C4.16814 17.5089 4.50541 17.7098 4.89805 17.8102C5.20653 17.889 5.52007 17.8985 5.83584 17.8356C6.19556 17.7644 6.53161 17.6081 6.8142 17.3805C6.84726 17.3541 6.88356 17.3341 6.9227 17.3825C7.07177 17.5658 7.27133 17.6881 7.48002 17.7939C8.04322 18.0791 8.65692 18.1645 9.28036 18.1994C9.43125 18.2078 9.58376 18.1868 9.73587 18.1826C10.0322 18.1748 10.3202 18.1186 10.6035 18.0391C10.7519 17.9973 10.897 17.9444 11.048 17.8949C11.056 18.0511 11.0661 18.2015 11.0708 18.352L11.0919 19.1724C11.0957 19.2973 11.1008 19.4225 11.1127 19.5468C11.1434 19.8672 11.1734 20.1878 11.2127 20.5072C11.2401 20.7274 11.2685 20.9493 11.3218 21.1642C11.4286 21.598 11.5751 22.0216 11.7595 22.43C11.9358 22.8266 12.207 23.1766 12.5505 23.4511C13.0007 23.8127 13.5284 23.9669 14.0983 23.9954C14.334 24.0075 14.5763 23.9962 14.8083 23.9553C15.1771 23.8916 15.5419 23.8078 15.9009 23.7042C16.6292 23.4907 17.2587 23.1221 17.729 22.5263C17.9967 22.1868 18.2166 21.8196 18.3577 21.4141C18.4741 21.0791 18.5838 20.7408 18.6711 20.3979C18.74 20.1277 18.7741 19.8491 18.8161 19.5732C18.8438 19.3906 18.8605 19.2063 18.8779 19.0224C18.9063 18.7236 18.9353 18.4251 18.9558 18.1257C18.97 17.9174 18.9694 17.708 18.9779 17.4993C18.9805 17.4357 18.9911 17.3725 18.9972 17.3091C19.0028 17.2504 19.0333 17.2301 19.0949 17.2311C19.3121 17.2342 19.5297 17.2397 19.7463 17.2303C19.9891 17.2196 20.2341 17.2096 20.473 17.1706C20.8134 17.1153 21.1511 17.0452 21.485 16.9605C21.8791 16.8604 22.2405 16.6812 22.5883 16.477C22.9935 16.2393 23.3628 15.9605 23.6626 15.6013C23.9232 15.2879 24.0467 14.9258 23.9838 14.5304ZM23.2919 14.7237C23.2785 14.9039 23.1935 15.0583 23.0702 15.1903C22.4883 15.8132 21.7584 16.1911 20.9235 16.3772C20.6063 16.4477 20.2789 16.4843 19.9542 16.5134C19.6768 16.5372 19.3981 16.5436 19.1199 16.5326C18.9158 16.5251 18.7134 16.4798 18.5049 16.4506C18.4841 16.6357 18.4642 16.8285 18.44 17.0209L18.3429 17.7584C18.3135 17.9922 18.2906 18.2267 18.2604 18.4603C18.2308 18.687 18.1938 18.9129 18.1628 19.1395C18.1338 19.3506 18.1125 19.5627 18.0803 19.7734C18.0306 20.0964 17.9831 20.4202 17.9182 20.7406C17.8403 21.1236 17.7209 21.4946 17.526 21.84C17.2883 22.2617 16.9512 22.5829 16.5223 22.8208C16.0802 23.0661 15.5969 23.1937 15.1069 23.3005C14.7601 23.3761 14.4027 23.3885 14.0515 23.3578C13.4422 23.3042 12.9222 23.0512 12.5292 22.5925C12.154 22.1547 11.9001 21.653 11.8092 21.085C11.7668 20.8146 11.7336 20.543 11.7096 20.2705C11.6827 19.9677 11.6625 19.6643 11.649 19.3607C11.631 18.9754 11.6177 18.59 11.609 18.2045C11.5983 17.7307 11.5948 17.2569 11.5879 16.783L11.5867 16.7649C11.3385 16.9095 11.0945 17.0678 10.8357 17.1982C10.5333 17.35 10.2022 17.4407 9.86263 17.4646C9.59532 17.4843 9.32457 17.5022 9.05849 17.4816C8.62224 17.4475 8.18641 17.3811 7.7958 17.1726C7.6374 17.0879 7.47211 16.9849 7.363 16.8496C7.10138 16.5255 7.22671 16.1158 7.62118 15.9187C7.89375 15.7822 8.19127 15.7253 8.48677 15.659C8.74398 15.6024 8.99849 15.5348 9.24953 15.4563C9.49737 15.3776 9.65373 15.1824 9.80807 14.991L10.0527 14.6855C9.95065 14.6751 9.85452 14.6645 9.75838 14.6558C9.46654 14.629 9.18808 14.551 8.92179 14.4364C8.69384 14.3385 8.69039 14.3279 8.52327 14.504C8.24421 14.7982 7.97285 15.0993 7.69946 15.3984C7.49827 15.6184 7.2983 15.8397 7.09813 16.0603C6.89978 16.2785 6.71401 16.5091 6.50045 16.7122C6.18326 17.0137 5.80096 17.195 5.34484 17.1745C5.05219 17.1615 4.78428 17.0619 4.54334 16.899C4.04605 16.5627 3.71101 16.0922 3.40598 15.5981C3.01517 14.965 2.71521 14.2905 2.45846 13.5975C2.2808 13.1186 2.10232 12.6392 1.94717 12.1534C1.77864 11.6254 1.63079 11.0908 1.48538 10.5563C1.37674 10.1525 1.27653 9.7466 1.18481 9.33886C1.07784 8.87581 0.978856 8.41105 0.8879 7.94479C0.827463 7.62989 0.792377 7.31047 0.7435 6.99341C0.677587 6.56607 0.665418 6.13479 0.68935 5.70568C0.710645 5.31911 0.767837 4.93351 0.824624 4.5495C0.903314 4.01818 1.08361 3.51679 1.343 3.04337C1.5018 2.75329 1.69894 2.4896 1.92689 2.24462C2.30108 1.84249 2.75395 1.55182 3.25773 1.33362C3.60981 1.18119 3.98176 1.08942 4.36081 1.01774C4.9234 0.911397 5.49107 0.915532 6.05893 0.926954C6.30717 0.931877 6.5544 0.975793 6.80243 0.999622C7.33643 1.05122 7.85988 1.16032 8.37664 1.29502C8.75326 1.39309 9.12217 1.52011 9.49574 1.63039C9.53326 1.64142 9.58823 1.64044 9.61885 1.62094C10.1251 1.30014 10.6783 1.08844 11.2667 0.967325C11.49 0.92144 11.7204 0.901353 11.9487 0.887174C12.2264 0.870041 12.5062 0.854287 12.7833 0.869844C13.1163 0.888356 13.4477 0.936013 13.7787 0.980126C13.9393 1.00139 14.0961 1.05555 14.2571 1.07032C14.3342 1.07741 14.4159 1.02266 14.4974 1.00435C14.913 0.9112 15.3267 0.807417 15.7459 0.733765C16.0581 0.679018 16.3769 0.65322 16.6943 0.635496C17.0482 0.615803 17.4047 0.601427 17.7584 0.617969C18.2063 0.639549 18.6512 0.700385 19.0878 0.799737C19.6307 0.922425 20.1516 1.10065 20.6466 1.34799C21.0165 1.53271 21.3682 1.74697 21.6848 2.01047C21.8923 2.18337 22.1046 2.35411 22.292 2.54671C22.5232 2.78421 22.7591 3.02191 22.9041 3.32616C23.0132 3.55559 23.0911 3.79309 23.1126 4.04437C23.1393 4.3567 23.1718 4.67022 23.1688 4.98294C23.1659 5.28208 23.1239 5.58102 23.0941 5.87937C23.0264 6.55957 22.8741 7.225 22.6891 7.88157C22.5344 8.42393 22.3592 8.9606 22.164 9.4905C21.9858 9.97908 21.7801 10.4588 21.5722 10.9366C21.4192 11.2905 21.2529 11.6388 21.0737 11.9809C20.7336 12.628 20.3799 13.2684 19.9709 13.8779C19.9003 13.9833 19.8334 14.0912 19.7644 14.1987C19.9429 14.3157 20.1451 14.3569 20.3487 14.3781C20.5424 14.3986 20.7399 14.4108 20.9334 14.3968C21.2431 14.3746 21.5518 14.3317 21.8596 14.2897C22.1646 14.2483 22.4636 14.1641 22.7767 14.1863C23.0895 14.2084 23.3132 14.4392 23.2919 14.7237ZM18.8274 14.0634C18.6946 13.8968 18.5591 13.7322 18.4291 13.5636C18.2251 13.2989 18.0784 13.0034 17.9312 12.7064C17.7917 12.425 17.6205 12.1585 17.4735 11.8803C17.2169 11.3948 16.9557 10.911 16.7194 10.4161C16.4223 9.79436 16.1881 9.1506 16.1142 8.46193C16.083 8.17047 16.0751 7.8794 16.1357 7.5907C16.2329 7.12969 16.4809 6.76911 16.8979 6.52176C17.2846 6.29234 17.7156 6.21829 18.1571 6.19505C18.4311 6.18068 18.7063 6.19249 18.9907 6.19249L18.9811 6.14582C18.8043 5.78682 18.639 5.42171 18.4455 5.07117C18.1725 4.57648 17.8233 4.13043 17.4343 3.71688C17.1461 3.41065 16.834 3.12648 16.4921 2.87539C16.1558 2.62824 15.8015 2.40748 15.4235 2.2269C14.9726 2.01165 14.5031 1.84524 14.0105 1.7391C13.5371 1.63709 13.0607 1.57466 12.5752 1.56954C12.1611 1.56521 11.7496 1.58333 11.3462 1.67411C10.7373 1.81098 10.1804 2.05438 9.69592 2.44864C9.42765 2.66673 9.18809 2.91608 8.98264 3.19107C8.74008 3.51463 8.54437 3.86398 8.37705 4.23027C8.14747 4.73284 7.98988 5.25589 7.88219 5.79351C7.82825 6.06154 7.78606 6.33192 7.74307 6.60211C7.72806 6.69664 7.72684 6.79333 7.71812 6.90164C7.79296 6.86383 7.8469 6.83469 7.90207 6.80869L8.08155 6.73051C8.68856 6.46091 9.31748 6.28742 9.99344 6.30731C10.2806 6.31577 10.5554 6.37091 10.8108 6.49301C11.3005 6.72756 11.5871 7.12634 11.7116 7.63108C11.7976 7.97945 11.8564 8.33471 11.9136 8.68899C11.9585 8.96568 12.0043 9.24532 12.0096 9.52437C12.0171 9.93221 11.9958 10.3408 11.9729 10.7485C11.9531 11.0951 11.8793 11.4368 11.7538 11.7619C11.5267 12.3513 11.2736 12.9311 11.0371 13.5171C10.959 13.7107 10.899 13.9112 10.8252 14.1241C10.9391 14.1241 11.0316 14.1233 11.1241 14.1245C11.1602 14.1251 11.1971 14.1261 11.232 14.1341C11.5038 14.1964 11.7394 14.3159 11.9327 14.5189C12.1905 14.7891 12.3257 15.1044 12.3326 15.4693C12.3365 15.6716 12.3146 15.8744 12.3156 16.0767C12.3199 17.0192 12.3272 17.9617 12.3353 18.904C12.3367 19.058 12.3446 19.2122 12.356 19.366C12.3797 19.688 12.4036 20.0102 12.4361 20.3314C12.4588 20.5592 12.4904 20.7867 12.5275 21.0129C12.5801 21.3335 12.7304 21.6189 12.9009 21.8916C13.0478 22.1262 13.2386 22.3255 13.4901 22.4629C13.9174 22.6965 14.3776 22.716 14.8414 22.6299C15.1547 22.5718 15.4624 22.4785 15.7666 22.3822C16.0659 22.2892 16.3391 22.1306 16.5651 21.9186C16.7782 21.7179 16.9295 21.4734 17.0315 21.2034C17.2295 20.6797 17.2911 20.1283 17.3731 19.5812C17.4037 19.3764 17.4303 19.171 17.4582 18.9658C17.4901 18.7323 17.5223 18.4989 17.5532 18.2655C17.5759 18.0917 17.5966 17.9174 17.6185 17.7435C17.6497 17.4938 17.6828 17.2443 17.7126 16.9944C17.7355 16.8012 17.755 16.6072 17.7752 16.4136C17.8014 16.1663 17.8296 15.9189 17.8521 15.6712C17.8695 15.4831 17.8624 15.2917 17.8967 15.1072C17.9598 14.7688 18.1245 14.4809 18.4334 14.2948C18.5625 14.217 18.7084 14.1658 18.8518 14.1001L18.8274 14.0634ZM7.1462 12.6747C6.99207 12.323 6.89926 11.9488 6.87159 11.5675C6.84563 11.2081 6.88964 10.8501 6.92757 10.4923C6.96448 10.1457 6.9951 9.79751 7.00585 9.44934C7.0237 8.87706 6.98395 8.30556 6.95576 7.73368C6.93872 7.39318 6.97949 7.04855 7.01072 6.70727C7.03891 6.39986 7.074 6.09167 7.13382 5.78879C7.23422 5.28051 7.36746 4.77951 7.55689 4.29388C7.73678 3.83346 7.94344 3.38505 8.23528 2.98134C8.43525 2.70445 8.6622 2.44569 8.88022 2.1751L8.81552 2.15285C8.10609 1.93406 7.38511 1.76312 6.64363 1.68849C6.29298 1.65324 5.9411 1.63256 5.58943 1.61227C5.48154 1.60597 5.37202 1.62015 5.26372 1.63019C4.9956 1.65501 4.72425 1.66485 4.46039 1.71369C4.01137 1.7966 3.5806 1.93603 3.18168 2.16309C2.82351 2.36691 2.52275 2.63041 2.27086 2.94648C1.9926 3.29544 1.80541 3.69009 1.67095 4.11093C1.51215 4.6074 1.4365 5.11824 1.41602 5.6338C1.39817 6.08576 1.38925 6.54027 1.46956 6.99046C1.52939 7.32564 1.56934 7.66436 1.63525 7.99815C1.7251 8.45326 1.82143 8.90739 1.93277 9.35777C2.09198 10.0025 2.25098 10.6483 2.4396 11.2851C2.6201 11.8954 2.82372 12.5002 3.04437 13.0977C3.22487 13.5853 3.43357 14.0638 3.65341 14.5361C3.79659 14.8437 3.97 15.1397 4.15171 15.4278C4.34499 15.7336 4.56484 16.0239 4.86317 16.2458C5.23958 16.5261 5.53102 16.5696 5.91352 16.2622C6.07739 16.1304 6.21591 15.9678 6.35848 15.8128C6.58502 15.5666 6.80365 15.3137 7.02918 15.0668C7.31635 14.7521 7.60718 14.4408 7.89578 14.1276C7.95683 14.0615 8.01544 13.9933 8.07486 13.9264L7.9767 13.8427C7.6203 13.5128 7.3376 13.1152 7.1462 12.6747ZM18.0346 3.30686C18.2705 3.57333 18.4944 3.84955 18.7057 4.13476C19.1114 4.68794 19.4354 5.28523 19.6741 5.92427C19.7798 6.20589 19.8642 6.49025 19.8265 6.79845C19.8003 7.01429 19.8025 7.23327 19.7829 7.45029C19.7664 7.63088 19.737 7.81048 19.7129 7.99047C19.6768 8.26185 19.6245 8.53243 19.6088 8.80498C19.594 9.06434 19.6095 9.32645 19.6263 9.5864C19.6433 9.85049 19.68 10.1134 19.705 10.3771C19.7332 10.676 19.7711 10.975 19.7798 11.2745C19.7869 11.5205 19.7644 11.768 19.7423 12.0136C19.7159 12.3094 19.6387 12.5957 19.5235 12.8704C19.4425 13.0638 19.3458 13.2513 19.2543 13.4449L19.291 13.4827L19.3468 13.5246L19.403 13.427C19.8772 12.7018 20.2988 11.9456 20.6649 11.1636C20.899 10.6588 21.1212 10.1489 21.3315 9.63426C21.6609 8.83393 21.9215 8.01115 22.1231 7.17203C22.2135 6.7953 22.2827 6.41286 22.3441 6.03042C22.392 5.73148 22.432 5.42899 22.4409 5.12729C22.4504 4.80728 22.4322 4.48471 22.4017 4.16548C22.379 3.92444 22.3178 3.68182 22.1622 3.48588C21.9121 3.17039 21.6422 2.86869 21.3102 2.63001C21.0307 2.42895 20.7523 2.22276 20.4523 2.0536C19.9767 1.78577 19.462 1.60735 18.9242 1.48584C18.3993 1.36709 17.8675 1.31589 17.3323 1.30506C17.0167 1.29856 16.6997 1.33145 16.3848 1.3602C16.0994 1.3862 15.8159 1.43051 15.5285 1.46714C15.8368 1.63551 16.1408 1.78518 16.4276 1.96163C17.0305 2.33245 17.5708 2.7787 18.0346 3.30686ZM10.2011 13.6895C10.396 13.0843 10.6615 12.5065 10.9187 11.9252C11.1271 11.4537 11.2411 10.957 11.279 10.447C11.2979 10.1955 11.2926 9.94088 11.2799 9.68861C11.2671 9.40797 11.2405 9.12808 11.2004 8.84988C11.1464 8.49521 11.085 8.14034 10.9986 7.79216C10.9049 7.41544 10.6686 7.15312 10.2638 7.05643C10.0172 6.99755 9.77217 6.99991 9.52292 7.03812C8.91409 7.13126 8.35677 7.34907 7.83757 7.6681C7.73313 7.7323 7.67573 7.78409 7.69378 7.92962C7.73191 8.23782 7.74023 8.55094 7.73881 8.86209C7.73678 9.30243 7.71751 9.74277 7.70027 10.1829C7.69459 10.3263 7.6733 10.4689 7.65748 10.6116C7.63314 10.8302 7.58629 11.0486 7.58771 11.2668C7.58913 11.4917 7.61286 11.7219 7.66904 11.9397C7.84751 12.6304 8.22555 13.1956 8.84513 13.5943C9.22621 13.8395 9.64785 13.9632 10.1107 13.9866C10.1421 13.8834 10.1701 13.786 10.2011 13.6895ZM9.47384 7.7644C9.39231 7.59819 9.43896 7.46053 9.62798 7.39673C9.67401 7.38097 9.72147 7.36423 9.76933 7.3597C9.83504 7.3534 9.90197 7.35813 9.96849 7.35813C10.2082 7.35931 10.4388 7.3918 10.6368 7.5399C10.7637 7.63482 10.7978 7.76085 10.7156 7.89024C10.599 8.07378 10.4212 8.16594 10.2027 8.18366C9.85857 8.21143 9.61703 8.05566 9.47384 7.7644ZM19.014 7.70374C19.0416 7.48239 19.0637 7.26045 19.0919 7.0391C19.1032 6.95009 19.055 6.92606 18.9781 6.9239C18.7364 6.9174 18.4946 6.90913 18.2529 6.90479C17.9803 6.90007 17.715 6.9426 17.4627 7.04324C17.1828 7.15509 16.9697 7.3343 16.8827 7.63009C16.8188 7.84818 16.7986 8.07615 16.8233 8.30162C16.8569 8.65033 16.9382 8.99313 17.0652 9.32094C17.2343 9.75832 17.4114 10.1955 17.6229 10.6146C17.9095 11.1819 18.2338 11.7312 18.5382 12.2899C18.6195 12.4389 18.6879 12.5945 18.7727 12.7686C18.9435 12.4225 19.0369 12.0452 19.0467 11.6615C19.055 11.3444 19.0288 11.026 19.0097 10.7087C18.9978 10.5145 18.9696 10.3215 18.9501 10.1278C18.9229 9.85777 18.8818 9.58798 18.8755 9.3174C18.8692 9.04228 18.8893 8.76559 18.9136 8.49088C18.9365 8.22738 18.9813 7.96605 19.014 7.70374ZM18.4686 7.49066C18.3788 7.73151 18.1867 7.86739 17.9377 7.90737C17.7055 7.94439 17.5021 7.86109 17.3508 7.68129C17.2431 7.55329 17.2842 7.40165 17.4457 7.3152C17.631 7.21555 17.8349 7.19034 18.0752 7.17518C18.1405 7.1868 18.2389 7.19645 18.3324 7.22244C18.468 7.25966 18.5181 7.35872 18.4686 7.49066ZM11.2847 14.9071C11.1519 14.8017 10.9763 14.7956 10.8499 14.9112C10.6931 15.055 10.5552 15.2194 10.4173 15.3815C10.2581 15.5688 10.1088 15.7635 9.90339 15.9087C9.60445 16.1196 9.25602 16.207 8.90577 16.2897C8.62731 16.3555 8.34764 16.4166 8.06837 16.4798L8.06492 16.5148C8.14787 16.552 8.22819 16.5985 8.31458 16.6251C8.74048 16.7561 9.17368 16.8213 9.62372 16.7842C9.94862 16.7574 10.2581 16.6887 10.5514 16.5536C10.955 16.3679 11.2655 16.0737 11.5295 15.7314C11.5737 15.6743 11.5938 15.5898 11.5991 15.5162C11.6171 15.256 11.481 15.0627 11.2847 14.9071ZM21.7803 15.0107C21.4376 15.0463 21.0944 15.0841 20.7507 15.1032C20.5848 15.1125 20.4164 15.0818 20.2489 15.0686C19.968 15.0465 19.6938 14.9859 19.4563 14.8401C19.3188 14.756 19.2046 14.7466 19.0586 14.7942C18.8501 14.8624 18.68 14.966 18.6297 15.1853C18.5954 15.3336 18.583 15.4872 18.5692 15.6391C18.5666 15.6659 18.6011 15.7151 18.6274 15.7218C18.7883 15.7629 18.9499 15.8116 19.1144 15.826C19.3164 15.8437 19.522 15.838 19.7255 15.8281C19.9451 15.8175 20.1662 15.8037 20.3826 15.7683C20.8926 15.6852 21.3861 15.5497 21.8243 15.2688C21.9823 15.1674 22.1389 15.0638 22.2959 14.9612L22.2829 14.9396C22.1154 14.9638 21.9487 14.9933 21.7803 15.0107Z" fill="#2B2B2B"/>
</svg>
