<svg width="24" height="24" viewBox="0 0 24 24" fill="none" xmlns="http://www.w3.org/2000/svg">
<path d="M12.0006 13.9205C11.5459 13.9205 11.1098 13.7181 10.7883 13.3579C10.4668 12.9976 10.2862 12.509 10.2862 11.9995C10.2862 11.49 10.4668 11.0013 10.7883 10.6411C11.1098 10.2808 11.5459 10.0784 12.0006 10.0784C12.4552 10.0784 12.8913 10.2808 13.2128 10.6411C13.5343 11.0013 13.7149 11.49 13.7149 11.9995C13.7149 12.509 13.5343 12.9976 13.2128 13.3579C12.8913 13.7181 12.4552 13.9205 12.0006 13.9205ZM11.3971 17.7549C11.5967 18.0247 11.7979 18.2847 12.0006 18.5349C12.2032 18.2856 12.4044 18.0256 12.604 17.7549C12.2018 17.7645 11.7994 17.7645 11.3971 17.7549ZM9.11701 17.5948C8.23944 17.4921 7.3676 17.3352 6.50545 17.1248C6.41935 17.5731 6.35459 18.0064 6.31116 18.4247C6.094 20.4521 6.39688 21.6841 6.85747 21.9812C7.31806 22.2784 8.42097 21.9569 9.88047 20.7338C10.1814 20.4811 10.4839 20.2015 10.7879 19.895C10.1936 19.1633 9.6358 18.3954 9.11701 17.5948ZM17.4957 17.1248C16.6335 17.3352 15.7617 17.4921 14.8841 17.5948C14.3653 18.3954 13.8075 19.1633 13.2132 19.895C13.518 20.2024 13.8205 20.482 14.1207 20.7338C15.5802 21.9569 16.6831 22.2796 17.1437 21.9812C17.6043 21.6841 17.906 20.4521 17.6911 18.4247C17.6445 17.9883 17.5785 17.5545 17.4957 17.1248ZM19.1541 16.6279C19.8135 20.0077 19.4672 22.6984 18.002 23.6462C16.5368 24.5939 14.2841 23.5847 12.0017 21.2551C9.71932 23.5847 7.46664 24.5926 6.00143 23.6449C4.53622 22.6972 4.18991 20.0077 4.84823 16.6266C1.90523 15.5777 0 13.8949 0 11.9995C0 10.104 1.90523 8.42247 4.84709 7.37229C4.18877 3.99124 4.53507 1.30177 6.00029 0.354052C7.4655 -0.593667 9.71818 0.414244 12.0006 2.74384C14.283 0.414244 16.5356 -0.593667 18.0009 0.354052C19.4661 1.30177 19.8124 3.99124 19.1541 7.37229C22.0948 8.42247 24 10.104 24 11.9995C24 13.8949 22.0948 15.5777 19.1541 16.6279ZM10.7868 4.10394C10.4835 3.79743 10.1814 3.51781 9.88047 3.26508C8.42097 2.04201 7.31806 1.71928 6.85633 2.01768C6.39573 2.3148 6.094 3.54684 6.30887 5.57547C6.35459 5.99383 6.41935 6.42713 6.50317 6.87538C7.36567 6.66456 8.23789 6.50722 9.11586 6.40408C9.65989 5.5665 10.2169 4.79979 10.7868 4.10394ZM14.8841 6.40408C15.7617 6.50727 16.6336 6.6646 17.4957 6.87538C17.5818 6.42628 17.6466 5.99298 17.69 5.57547C17.9071 3.54684 17.6043 2.3148 17.1437 2.01768C16.6831 1.72056 15.5802 2.04201 14.1207 3.26508C13.8197 3.51781 13.5172 3.79743 13.2132 4.10394C13.7831 4.79979 14.3401 5.5665 14.8841 6.40408ZM12.604 6.24399C12.4044 5.97419 12.2032 5.71421 12.0006 5.46405C11.7987 5.71421 11.5975 5.97419 11.3971 6.24399C11.7994 6.23447 12.2018 6.23447 12.604 6.24399ZM7.85409 15.4625C7.64561 15.0771 7.44441 14.6868 7.25063 14.2919C7.14167 14.6206 7.04148 14.9459 6.95004 15.2678C7.24415 15.3387 7.54512 15.4036 7.85295 15.4625M10.061 15.7622C11.3515 15.8691 12.6473 15.8691 13.9378 15.7622C14.6661 14.5631 15.3144 13.3055 15.8773 11.9995C15.3147 10.6935 14.6669 9.43582 13.9389 8.23676C12.6485 8.12984 11.3527 8.12984 10.0622 8.23676C9.33429 9.43582 8.6864 10.6935 8.12382 11.9995C8.6864 13.3055 9.33429 14.5631 10.0622 15.7622M16.7505 9.70701C16.8595 9.37829 16.9597 9.05342 17.0511 8.7324C16.7515 8.65955 16.4504 8.59422 16.1482 8.53645C16.3563 8.92184 16.5571 9.31212 16.7505 9.70701ZM5.29168 9.22931C4.90309 9.37018 4.53583 9.52387 4.18991 9.69036C2.51555 10.4946 1.71437 11.4039 1.71437 11.9995C1.71437 12.595 2.51441 13.5043 4.18991 14.3086C4.53583 14.4751 4.90309 14.6287 5.29168 14.7696C5.54541 13.8731 5.85971 12.9433 6.23458 11.9995C5.87507 11.0962 5.56029 10.1714 5.29168 9.22931ZM6.9489 8.7324C7.0411 9.05257 7.14167 9.37701 7.25063 9.70573C7.44442 9.31126 7.64562 8.92141 7.85409 8.53645C7.5455 8.59536 7.24301 8.66068 6.9489 8.7324ZM18.7106 14.7696C19.0992 14.6287 19.4665 14.4751 19.8124 14.3086C21.4856 13.5043 22.2856 12.595 22.2856 11.9995C22.2856 11.4039 21.4856 10.4946 19.8101 9.69036C19.4642 9.52387 19.0965 9.37018 18.7072 9.22931C18.4557 10.1258 18.1403 11.0556 17.7654 11.9995C18.1403 12.9433 18.4546 13.8731 18.7083 14.7696M17.0511 15.2678C16.9581 14.9459 16.8576 14.6206 16.7494 14.2919C16.5556 14.6868 16.3544 15.0771 16.1459 15.4625C16.4545 15.4027 16.757 15.3378 17.0511 15.2678Z" fill="#2B2B2B"/>
</svg>
