<svg width="25" height="24" viewBox="0 0 25 24" fill="none" xmlns="http://www.w3.org/2000/svg">
<path d="M12.6246 0L0.595215 5.992V18.008L12.6246 24L24.5952 18.008V5.992L12.6246 0ZM12.5946 3.484L21.1632 7.711V16.289L12.5946 20.516L4.12066 16.334L4.0284 7.711L12.5946 3.484ZM12.6511 4.074C11.5248 4.63733 10.3993 5.20133 9.27447 5.766V6.02L12.2821 7.543V8.025L12.7457 7.793L13.0409 7.943V7.607C14.0604 7.101 15.1248 6.567 16.0025 6.127C16.0071 6.004 16.0059 5.874 16.0071 5.754L12.6511 4.074ZM8.36803 6.14C7.24939 6.693 6.14113 7.262 5.03171 7.831V11.233L8.36803 12.903L8.83163 12.671V9.754L11.7032 8.314V7.83L8.36803 6.14ZM16.9516 6.228L13.6164 7.898V8.235L16.6563 9.776V12.843L16.9516 12.991L20.2879 11.321V7.918L16.9516 6.228ZM12.7446 8.37L9.40825 10.042V13.466C10.5207 14.0213 11.6328 14.578 12.7446 15.136L16.0809 13.464V10.062L12.7446 8.37ZM5.59795 12.093L5.03287 12.378V15.78L8.36803 17.452L8.83163 17.22V14.302L9.37711 14.028L8.83163 13.755V13.247L8.36803 13.48C7.41661 13.002 6.41906 12.504 5.59795 12.093ZM19.7228 12.179L16.9516 13.567L16.6575 13.419V13.753L16.0889 14.038L16.6575 14.325V17.392L16.9516 17.54L20.2879 15.868V12.466L19.7228 12.179ZM9.95488 14.317C9.77344 14.409 9.59123 14.5003 9.40825 14.591V18.015L12.7446 19.685L16.0809 18.015V14.612L15.5158 14.325L12.7446 15.714L9.95488 14.317Z" fill="#2B2B2B"/>
</svg>
