<svg width="21" height="21" viewBox="0 0 21 21" fill="none" xmlns="http://www.w3.org/2000/svg">
<path d="M18.205 15.392C15.736 18.681 10.464 17.571 7.083 17.73C7.083 17.73 6.484 17.764 5.882 17.863C5.882 17.863 6.11 17.766 6.401 17.665C8.775 16.844 9.897 16.679 11.34 15.938C14.05 14.55 16.748 11.525 17.297 8.38299C16.265 11.405 13.127 14.006 10.27 15.062C8.315 15.784 4.778 16.486 4.777 16.486L4.634 16.41C2.229 15.24 2.159 10.03 6.528 8.35099C8.444 7.61499 10.275 8.01899 12.346 7.52599C14.554 7.00099 17.112 5.34599 18.151 3.18199C19.316 6.63999 20.716 12.048 18.205 15.392ZM18.247 2.11199C17.9678 2.78179 17.6103 3.4162 17.182 4.00199C16.2512 3.04255 15.1372 2.27986 13.9061 1.75919C12.6749 1.23852 11.3517 0.970488 10.015 0.970994C4.492 0.970994 1.79499e-06 5.46299 1.79499e-06 10.985C-0.000824307 12.3624 0.283504 13.7252 0.835091 14.9874C1.38668 16.2496 2.19358 17.3839 3.205 18.319L3.425 18.513C3.26465 18.3524 3.17464 18.1346 3.17479 17.9077C3.17493 17.6807 3.2652 17.4631 3.42575 17.3027C3.58631 17.1423 3.804 17.0522 4.03096 17.0522C4.25793 17.0523 4.47558 17.1424 4.63607 17.3029C4.79656 17.4634 4.88674 17.6811 4.88679 17.908C4.88683 18.135 4.79674 18.3527 4.63632 18.5132C4.4759 18.6738 4.25828 18.7641 4.03132 18.7642C3.80435 18.7644 3.58662 18.6743 3.426 18.514L3.575 18.646C5.37541 20.1681 7.65739 21.0023 10.015 21C15.293 21 19.628 16.892 19.999 11.708C20.273 9.16899 19.523 5.94499 18.247 2.11199Z" fill="#2B2B2B"/>
</svg>
