<svg width="24" height="24" viewBox="0 0 24 24" fill="none" xmlns="http://www.w3.org/2000/svg">
<path d="M21.6533 0H2.34667C1.72429 0 1.12741 0.247237 0.687323 0.687323C0.247237 1.12741 0 1.72429 0 2.34667V21.6533C0 22.2757 0.247237 22.8726 0.687323 23.3127C1.12741 23.7528 1.72429 24 2.34667 24H21.6533C21.9615 24 22.2667 23.9393 22.5514 23.8214C22.8361 23.7034 23.0948 23.5306 23.3127 23.3127C23.5306 23.0948 23.7034 22.8361 23.8214 22.5514C23.9393 22.2667 24 21.9615 24 21.6533V2.34667C24 2.0385 23.9393 1.73335 23.8214 1.44864C23.7034 1.16393 23.5306 0.905231 23.3127 0.687323C23.0948 0.469414 22.8361 0.29656 22.5514 0.178629C22.2667 0.0606982 21.9615 0 21.6533 0ZM13.92 13.3333H10.92V21.92H8.53333V13.3333H5.53333V11.3867H13.92V13.3333ZM21.6533 20.3733C21.461 20.7842 21.1498 21.1279 20.76 21.36C20.3504 21.6121 19.8988 21.7882 19.4267 21.88C18.9001 21.9869 18.364 22.0405 17.8267 22.04C17.2767 22.0395 16.7279 21.9904 16.1867 21.8933C15.7265 21.7994 15.279 21.6517 14.8533 21.4533V19.1733L14.7733 19.0933H14.8533V19.1867C15.2542 19.4998 15.705 19.7432 16.1867 19.9067C16.6679 20.0885 17.1789 20.179 17.6933 20.1733C17.9622 20.1778 18.2307 20.1509 18.4933 20.0933C18.6904 20.0466 18.8792 19.9701 19.0533 19.8667C19.1894 19.7837 19.3037 19.6694 19.3867 19.5333C19.4688 19.3784 19.5049 19.2031 19.4907 19.0283C19.4765 18.8535 19.4127 18.6864 19.3067 18.5467C19.1824 18.37 19.0237 18.2203 18.84 18.1067C18.6186 17.9497 18.3818 17.8157 18.1333 17.7067L17.24 17.3333C16.5336 17.0407 15.9073 16.5836 15.4133 16C15.0008 15.5027 14.7829 14.8726 14.8 14.2267C14.7845 13.736 14.8946 13.2495 15.12 12.8133C15.3355 12.4335 15.6369 12.1093 16 11.8667C16.4053 11.5978 16.8576 11.4078 17.3333 11.3067C17.8534 11.1856 18.3861 11.1274 18.92 11.1333C19.4061 11.1265 19.8921 11.1578 20.3733 11.2267C20.7738 11.289 21.1669 11.3917 21.5467 11.5333V13.7333C21.3713 13.6081 21.1836 13.5009 20.9867 13.4133C20.774 13.3237 20.5558 13.248 20.3333 13.1867C20.1196 13.1241 19.9011 13.0795 19.68 13.0533C19.476 13.0345 19.2707 13.0345 19.0667 13.0533C18.8154 13.0493 18.5647 13.0762 18.32 13.1333C18.1191 13.1746 17.9257 13.2466 17.7467 13.3467C17.6072 13.4299 17.4887 13.5439 17.4 13.68C17.3202 13.8128 17.2787 13.9651 17.28 14.12C17.275 14.2856 17.3216 14.4487 17.4133 14.5867C17.5231 14.7379 17.6584 14.8688 17.8133 14.9733C18.0017 15.1224 18.2077 15.2478 18.4267 15.3467L19.2667 15.72C19.6521 15.8814 20.0263 16.0685 20.3867 16.28C20.7022 16.4539 20.9898 16.6741 21.24 16.9333C21.4841 17.1705 21.675 17.4568 21.8 17.7733C21.9273 18.1375 21.9905 18.5209 21.9867 18.9067C21.9764 19.4046 21.8628 19.8949 21.6533 20.3467V20.3733Z" fill="#2B2B2B"/>
</svg>
